<svg xmlns="http://www.w3.org/2000/svg" width="500" height="500" style="width:100%;height:100%;transform:translate3d(0,0,0)" viewBox="0 0 500 500"><defs><clipPath id="a"><path d="M0 0h500v500H0z"/></clipPath><clipPath id="c"><path d="M0 0h500v500H0z"/></clipPath><clipPath id="b"><path d="M0 0h500v500H0z"/></clipPath></defs><g clip-path="url(#a)"><g fill="none" clip-path="url(#b)" opacity="0" style="display:block"><path stroke="#2462EB" stroke-linecap="round" stroke-linejoin="round" stroke-width="12.04" d="M-17.827 106.828C-46.34 80.125-64.173 42.139-64.173 0c0-42.139 17.833-80.126 46.346-106.828M15.429 71.129C-3.556 53.35-15.429 28.057-15.429 0c0-28.057 11.873-53.35 30.858-71.129" opacity="1" style="display:block" transform="translate(167.9 208.328)"/><path style="display:none"/><path style="display:none"/><path style="display:none"/><path style="display:none"/><path style="display:none"/><path style="display:none"/><path style="display:none"/><path style="display:none"/><path style="display:none"/><path style="display:none"/><path style="display:none"/><path style="display:none"/><path style="display:none"/><path style="display:none"/><path style="display:none"/><path stroke="#2462EB" stroke-linecap="round" stroke-linejoin="round" stroke-width="12.04" d="M-17.827 106.828C-46.34 80.125-64.173 42.139-64.173 0c0-42.139 17.833-80.126 46.346-106.828M15.429 71.129C-3.556 53.35-15.429 28.057-15.429 0c0-28.057 11.873-53.35 30.858-71.129" opacity="1" style="display:block" transform="matrix(-1 0 0 1 332.1 208.328)"/><path style="display:none"/><path style="display:none"/><path style="display:none"/><path style="display:none"/><path style="display:none"/><path style="display:none"/><path style="display:none"/><path style="display:none"/><path style="display:none"/><path style="display:none"/><path style="display:none"/><path style="display:none"/><path style="display:none"/><path style="display:none"/><path style="display:none"/><path stroke="#121330" stroke-linecap="round" stroke-linejoin="round" stroke-width="12.04" d="M-.109 49.756v162.488M-48.746 0c0 26.922 21.824 48.746 48.746 48.746S48.746 26.922 48.746 0 26.922-48.746 0-48.746-48.746-26.922-48.746 0z" opacity="1" style="display:block" transform="translate(249.891 208.329)"/></g><g fill="none" clip-path="url(#c)" style="display:block"><path stroke="#2462EB" stroke-linecap="round" stroke-linejoin="round" stroke-width="12.04" d="M-17.827 106.828C-46.34 80.125-64.173 42.139-64.173 0c0-42.139 17.833-80.126 46.346-106.828M15.429 71.129C-3.556 53.35-15.429 28.057-15.429 0c0-28.057 11.873-53.35 30.858-71.129" style="display:block" transform="translate(167.9 208.328)"/><path style="display:none"/><path style="display:none"/><path style="display:none"/><path style="display:none"/><path style="display:none"/><path stroke="#2462EB" stroke-linecap="round" stroke-linejoin="round" stroke-width="12.04" d="M-17.827 106.828C-46.34 80.125-64.173 42.139-64.173 0c0-42.139 17.833-80.126 46.346-106.828M15.429 71.129C-3.556 53.35-15.429 28.057-15.429 0c0-28.057 11.873-53.35 30.858-71.129" style="display:block" transform="matrix(-1 0 0 1 332.1 208.328)"/><path style="display:none"/><path style="display:none"/><path style="display:none"/><path style="display:none"/><path style="display:none"/><path stroke="#121330" stroke-linecap="round" stroke-linejoin="round" stroke-width="12.04" d="M-.109 49.756v162.488M-48.746 0c0 26.922 21.824 48.746 48.746 48.746S48.746 26.922 48.746 0 26.922-48.746 0-48.746-48.746-26.922-48.746 0z" style="display:block" transform="translate(249.891 208.329)"/></g><g class="com" style="display:none"><path/><path/><path/><path/><path/><path/><path/><path/><path/><path/><path/><path/></g></g></svg>